<svg xmlns="http://www.w3.org/2000/svg" viewBox="0 0 89.93 70.97"><defs><style>.cls-1{isolation:isolate;}.cls-2{fill:#937f78;}.cls-11,.cls-3,.cls-5{fill:#fafbff;}.cls-4{fill:#d5c1be;}.cls-11,.cls-12,.cls-5,.cls-7{opacity:0.4;}.cls-12,.cls-6,.cls-8{fill:#cebdab;}.cls-6{opacity:0.62;}.cls-12,.cls-6,.cls-7{mix-blend-mode:multiply;}.cls-9{fill:#472b1e;}.cls-10{fill:#8a450e;}.cls-11{mix-blend-mode:overlay;}.cls-13{font-size:10.11px;fill:#fff;font-family:MyriadPro-Regular, Myriad Pro;}.cls-14{letter-spacing:-0.01em;}</style></defs><title>Recurso 9</title><g class="cls-1"><g id="Capa_2" data-name="Capa 2"><g id="OBJECTS"><path class="cls-2" d="M43.44,68.56c-23.75,0-43-4.2-43.42-9.41a1.11,1.11,0,0,0,0,.19C0,65.76,19.45,71,43.44,71s43.44-5.21,43.44-11.63c0-.07,0-.13,0-.19C86.49,64.36,67.2,68.56,43.44,68.56Z"/><ellipse class="cls-3" cx="43.44" cy="58.99" rx="43.44" ry="9.57"/><ellipse class="cls-4" cx="43.44" cy="61.63" rx="23.68" ry="4.3"/><path class="cls-5" d="M73.34,8.58C73.34,3.84,60,0,43.44,0S13.55,3.84,13.55,8.58c0,29.91,3.77,54.16,29.89,54.16,25.53,0,29.9-24.25,29.9-54.16Z"/><path class="cls-6" d="M43.34,48c-12.82,0-21.15-2.82-22.7-4.77,3.45,11.63,10.13,19,22.8,19,12.39,0,19.1-7.4,22.64-19C64.58,45.12,56.21,48,43.34,48Z"/><path class="cls-3" d="M77,18H73.16c-.08,2.08-.2,4.12-.35,6.1H77a6.86,6.86,0,0,1,0,13.72H70.84a55.21,55.21,0,0,1-1.74,6.1H77A13,13,0,1,0,77,18Z"/><g class="cls-7"><path class="cls-8" d="M77,42.07H69.69c-.19.63-.38,1.26-.59,1.86H77a13,13,0,0,0,13-13c0-.31,0-.62,0-.93A13,13,0,0,1,77,42.07Z"/><path class="cls-8" d="M83.76,30a7,7,0,0,0,.07-.92A6.87,6.87,0,0,0,77,22.25h-4l-.12,1.86H77A6.86,6.86,0,0,1,83.76,30Z"/></g><path class="cls-9" d="M63.31,49.16a.71.71,0,0,1-.09.33c-4.31,7.08-10.76,10.2-19.78,10.2-9.49,0-15.77-3.52-19.84-10,0,0,0,0,0,0l-.13-.22a.61.61,0,0,1-.07-.28c0-1.67,7.58-4.73,20-4.73S63.31,47.49,63.31,49.16Z"/><path class="cls-10" d="M63.31,49.16a.71.71,0,0,1-.09.33c-.88,1.71-8.26,4.4-19.88,4.4-11.16,0-18.42-2.49-19.74-4.2,0,0,0,0,0,0l-.13-.22a.61.61,0,0,1-.07-.28c0-1.67,7.58-4.73,20-4.73S63.31,47.49,63.31,49.16Z"/><path class="cls-11" d="M34.73,10.08a8.54,8.54,0,0,1,8.71-8.34c-12.64,0-22.89,3.74-22.89,8.34,0,29.08,2.89,52.66,22.89,52.66C35.83,62.74,34.73,39.16,34.73,10.08Z"/><path class="cls-12" d="M45.41,1.15a8.57,8.57,0,0,1,8.71,8.43h0c0,29.36-1.28,53.16-8.71,53.16,19.54,0,22.88-23.8,22.88-53.16h0C68.29,4.92,58.05,1.15,45.41,1.15Z"/><path class="cls-3" d="M43.44,0C26.93,0,13.55,3.84,13.55,8.58s13.38,8.59,29.89,8.59,29.9-3.85,29.9-8.59S60,0,43.44,0Zm0,15.13c-17.28,0-27.86-4.24-27.86-6.55S26.16,2,43.44,2,71.3,6.27,71.3,8.58,60.73,15.13,43.44,15.13Z"/><text class="cls-13" transform="translate(25.76 53.85) scale(0.99 1)">Exp<tspan class="cls-14" x="15.4" y="0">r</tspan><tspan x="18.6" y="0">esso</tspan></text></g></g></g></svg>