<svg xmlns="http://www.w3.org/2000/svg" viewBox="0 0 105.85 72.5"><defs><style>.cls-1{isolation:isolate;}.cls-2{fill:#937f78;}.cls-13,.cls-3,.cls-6{fill:#fafbff;}.cls-4{fill:#d5c1be;}.cls-5,.cls-7{fill:#cebdab;}.cls-13,.cls-6,.cls-7{opacity:0.4;}.cls-7{mix-blend-mode:multiply;}.cls-8{fill:#fff2ce;}.cls-9{fill:#fffcf2;}.cls-10{fill:#fec385;}.cls-11{fill:#3a1e08;}.cls-12{fill:#472b1e;}.cls-13{mix-blend-mode:overlay;}.cls-14{font-size:10.37px;}.cls-14,.cls-18,.cls-22{font-family:MyriadPro-Regular, Myriad Pro;}.cls-15{letter-spacing:-0.01em;}.cls-16{letter-spacing:0em;}.cls-17{letter-spacing:-0.01em;}.cls-18{font-size:10.11px;fill:#fff;}.cls-19{letter-spacing:-0.01em;}.cls-20{letter-spacing:0em;}.cls-21{letter-spacing:-0.01em;}.cls-22{font-size:12px;}.cls-23{letter-spacing:0em;}.cls-24{letter-spacing:-0.01em;}</style></defs><title>Recurso 15</title><g class="cls-1"><g id="Capa_2" data-name="Capa 2"><g id="OBJECTS"><path class="cls-2" d="M50.72,69.69C23,69.69.46,64.78,0,58.7c0,.07,0,.14,0,.22C0,66.42,22.71,72.5,50.72,72.5s50.73-6.08,50.73-13.58c0-.08,0-.15,0-.22C101,64.78,78.46,69.69,50.72,69.69Z"/><ellipse class="cls-3" cx="50.72" cy="58.52" rx="50.72" ry="11.18"/><path class="cls-4" d="M78.38,61.59c0,2.78-12.38,5-27.66,5s-27.65-2.24-27.65-5,12.38-5,27.65-5S78.38,58.82,78.38,61.59Z"/><path class="cls-3" d="M92.9,19.29H90.74c-.12,2.07-.28,4.11-.49,6.09H92.9a6.86,6.86,0,0,1,0,13.72H87.65a46.79,46.79,0,0,1-2.24,6.1H92.9a13,13,0,0,0,0-25.91Z"/><path class="cls-5" d="M92.9,43.67H86c-.2.51-.4,1-.62,1.53H92.9a13,13,0,0,0,12.95-13c0-.25,0-.51,0-.76A13,13,0,0,1,92.9,43.67Z"/><path class="cls-5" d="M99.71,31.48a6.64,6.64,0,0,0,.05-.77,6.87,6.87,0,0,0-6.86-6.86H90.39c0,.51-.08,1-.14,1.53H92.9A6.86,6.86,0,0,1,99.71,31.48Z"/><path class="cls-6" d="M91,8.88h0C91,4,73,0,50.72,0S10.44,4,10.44,8.88h0c0,30.92,5.09,56,40.28,56C85.12,64.87,91,39.8,91,8.88Z"/><path class="cls-7" d="M16,33.45c3.43,19.42,12.68,30.72,34.69,30.72,21.77,0,31.08-11.63,34.59-30.72Z"/><path class="cls-8" d="M50.73,61.82c-8.13,0-16.72-1.38-23.36-6.4-5.91-4.48-9.26-11.27-11.12-18.31-1.37-5.2-3.84-11.35,1.92-14.84A20.57,20.57,0,0,1,25.41,20c-.72-2.4.62-5,2.61-6.56a17.1,17.1,0,0,1,7-2.69c8.75-1.88,17.9-2.92,25.75-7.22A4,4,0,0,1,62.08,3a3.29,3.29,0,0,1,1.77.4,12.3,12.3,0,0,1,6.64,13.07c.19-1,7.51,1,8.23,1.25,2.44,1,5.93,2.79,7.4,5.06,2.64,4.06-.33,12.26-1.71,16.54-2.28,7.06-6.3,13.54-12.72,17.5C65.46,60.69,58,61.82,50.73,61.82Z"/><path class="cls-9" d="M64.85,4.79a6.38,6.38,0,0,0-.07-.87,10.36,10.36,0,0,0-.93-.5A3.29,3.29,0,0,0,62.08,3a4,4,0,0,0-1.35.55c-7.85,4.3-17,5.34-25.75,7.22a17.1,17.1,0,0,0-7,2.69A7.1,7.1,0,0,0,25.28,18a5.81,5.81,0,0,0,1.78.62c4.18.73,8.34-1,12.52-1.78,5.06-.93,10.34-.42,15.34-1.69S64.88,9.94,64.85,4.79Z"/><path class="cls-10" d="M79.37,31.85a148.47,148.47,0,0,1-28.66,2.48,148.47,148.47,0,0,1-28.66-2.48A51.2,51.2,0,0,1,16,30.26a3.13,3.13,0,0,1-1.29-.85c3,20.42,12.17,32.41,36,32.41,23.61,0,32.87-12.36,35.93-32.37a3,3,0,0,1-1.24.81A51.2,51.2,0,0,1,79.37,31.85Z"/><path class="cls-11" d="M50.71,43a148.47,148.47,0,0,1-28.66-2.48,52.58,52.58,0,0,1-5.21-1.32C21.27,53.59,31,61.82,50.73,61.82c19.49,0,29.2-8.42,33.72-22.62-1.38.43-3,.86-5.08,1.28A148.47,148.47,0,0,1,50.71,43Z"/><path class="cls-12" d="M22.16,50.13c5.61,7.55,14.56,11.69,28.57,11.69,13.74,0,22.62-4.19,28.25-11.64a149,149,0,0,1-28.27,2.4A148.57,148.57,0,0,1,22.16,50.13Z"/><path class="cls-7" d="M66.42.88a6.36,6.36,0,0,1,2.35,4.63h0c0,32.78-2.64,59.36-18,59.36,30.86,0,36.14-25.07,36.14-56h0C86.86,5.36,78.52,2.31,66.42.88Z"/><path class="cls-13" d="M32.68,5.51h0A6.36,6.36,0,0,1,35,.88c-12.1,1.43-20.44,4.48-20.44,8h0c0,30.92,4.56,56,36.13,56C35,64.87,32.68,38.29,32.68,5.51Z"/><path class="cls-3" d="M50.72,0C28.48,0,10.44,4,10.44,8.88s18,8.87,40.28,8.87S91,13.78,91,8.88,73,0,50.72,0ZM78.4,13.25a138.65,138.65,0,0,1-27.68,2.47,138.62,138.62,0,0,1-27.67-2.47C14.5,11.41,12.53,9.33,12.47,8.87s2-2.53,10.58-4.37A138.55,138.55,0,0,1,50.72,2,138.58,138.58,0,0,1,78.4,4.5C87,6.34,88.92,8.42,89,8.88S87,11.41,78.4,13.25Z"/><text class="cls-14" transform="translate(15.32 27.93) scale(0.99 1)"><tspan class="cls-15">W</tspan><tspan x="8.72" y="0">hipped </tspan><tspan class="cls-16" x="41.95" y="0">C</tspan><tspan class="cls-17" x="47.93" y="0">r</tspan><tspan x="51.22" y="0">eam</tspan></text><text class="cls-18" transform="translate(29.47 49.5) scale(0.99 1)">Cho<tspan class="cls-19" x="17.02" y="0">c</tspan><tspan x="21.48" y="0">ol</tspan><tspan class="cls-20" x="29.42" y="0">a</tspan><tspan class="cls-19" x="34.25" y="0">t</tspan><tspan x="37.53" y="0">e</tspan></text><text class="cls-18" transform="translate(32.3 58.91) scale(0.99 1)">Exp<tspan class="cls-21" x="15.4" y="0">r</tspan><tspan x="18.6" y="0">esso</tspan></text><text class="cls-22" transform="translate(16.92 40.64)"><tspan class="cls-23">S</tspan><tspan class="cls-24" x="5.88" y="0">t</tspan><tspan x="9.78" y="0">eamed milk</tspan></text></g></g></g></svg>