<svg xmlns="http://www.w3.org/2000/svg" viewBox="0 0 105.85 72.5"><defs><style>.cls-1{isolation:isolate;}.cls-2{fill:#937f78;}.cls-12,.cls-3,.cls-6{fill:#fafbff;}.cls-4{fill:#d5c1be;}.cls-5,.cls-7{fill:#cebdab;}.cls-12,.cls-6,.cls-7{opacity:0.4;}.cls-7{mix-blend-mode:multiply;}.cls-8{fill:#fff2ce;}.cls-9{fill:#ffe6b0;}.cls-10{fill:#fffcf2;}.cls-11{fill:#472b1e;}.cls-12{mix-blend-mode:overlay;}.cls-13{font-size:10.11px;fill:#fff;}.cls-13,.cls-15{font-family:MyriadPro-Regular, Myriad Pro;}.cls-14{letter-spacing:-0.01em;}.cls-15{font-size:10.37px;}.cls-16{letter-spacing:0em;}.cls-17{letter-spacing:-0.01em;}.cls-18{letter-spacing:-0.03em;}</style></defs><title>Recurso 18</title><g class="cls-1"><g id="Capa_2" data-name="Capa 2"><g id="OBJECTS"><path class="cls-2" d="M50.72,69.69C23,69.69.46,64.78,0,58.7c0,.07,0,.14,0,.22C0,66.42,22.71,72.5,50.72,72.5s50.73-6.08,50.73-13.58c0-.08,0-.15,0-.22C101,64.78,78.46,69.69,50.72,69.69Z"/><ellipse class="cls-3" cx="50.72" cy="58.52" rx="50.72" ry="11.18"/><path class="cls-4" d="M78.38,61.59c0,2.78-12.38,5-27.66,5s-27.65-2.24-27.65-5,12.38-5,27.65-5S78.38,58.82,78.38,61.59Z"/><path class="cls-3" d="M92.9,19.29H90.74c-.12,2.07-.28,4.11-.49,6.09H92.9a6.86,6.86,0,0,1,0,13.72H87.65a46.79,46.79,0,0,1-2.24,6.1H92.9a13,13,0,0,0,0-25.91Z"/><path class="cls-5" d="M92.9,43.67H86c-.2.51-.4,1-.62,1.53H92.9a13,13,0,0,0,12.95-13c0-.25,0-.51,0-.76A13,13,0,0,1,92.9,43.67Z"/><path class="cls-5" d="M99.71,31.48a6.64,6.64,0,0,0,.05-.77,6.87,6.87,0,0,0-6.86-6.86H90.39c0,.51-.08,1-.14,1.53H92.9A6.86,6.86,0,0,1,99.71,31.48Z"/><path class="cls-6" d="M91,8.88h0C91,4,73,0,50.72,0S10.44,4,10.44,8.88h0c0,30.92,5.09,56,40.28,56C85.12,64.87,91,39.8,91,8.88Z"/><path class="cls-7" d="M16,33.45c3.43,19.42,12.68,30.72,34.69,30.72,21.77,0,31.08-11.63,34.59-30.72Z"/><path class="cls-8" d="M87.42,23C85.36,46.79,76.77,61.82,50.73,61.82,24.49,61.82,16,47.31,14,23a2.9,2.9,0,0,0,2,2.31,50.68,50.68,0,0,0,6.05,1.59,148.47,148.47,0,0,0,28.66,2.48,148.47,148.47,0,0,0,28.66-2.48,51.2,51.2,0,0,0,6-1.59A2.9,2.9,0,0,0,87.42,23Z"/><path class="cls-9" d="M79.37,37.14a147.68,147.68,0,0,1-28.66,2.48,147.68,147.68,0,0,1-28.66-2.48A53,53,0,0,1,16,35.56c-.06,0-.1-.06-.15-.08,3.9,16.7,13.5,26.34,34.88,26.34,21.12,0,30.76-9.89,34.75-26.29,0,0,0,0-.06,0A53.52,53.52,0,0,1,79.37,37.14Z"/><path class="cls-10" d="M50.71,29.4a147.75,147.75,0,0,1-28.66-2.47,49.93,49.93,0,0,1-6-1.59,2.91,2.91,0,0,1,0-5.56,51.87,51.87,0,0,1,6-1.59,148.54,148.54,0,0,1,28.66-2.47,148.54,148.54,0,0,1,28.66,2.47,52.67,52.67,0,0,1,6,1.59,2.91,2.91,0,0,1,0,5.56,49.93,49.93,0,0,1-6,1.59A147.75,147.75,0,0,1,50.71,29.4Z"/><path class="cls-11" d="M50.71,47.26a135.07,135.07,0,0,1-27.32-2.48,47.71,47.71,0,0,1-5-1.33C23.4,55.21,33,61.82,50.73,61.82c17.42,0,27-6.74,32.1-18.3A49.53,49.53,0,0,1,78,44.78,135.07,135.07,0,0,1,50.71,47.26Z"/><path class="cls-7" d="M66.42.88a6.36,6.36,0,0,1,2.35,4.63h0c0,32.78-2.64,59.36-18,59.36,30.86,0,36.14-25.07,36.14-56h0C86.86,5.36,78.52,2.31,66.42.88Z"/><path class="cls-12" d="M32.68,5.51h0A6.36,6.36,0,0,1,35,.88c-12.1,1.43-20.44,4.48-20.44,8h0c0,30.92,4.56,56,36.13,56C35,64.87,32.68,38.29,32.68,5.51Z"/><path class="cls-3" d="M50.72,0C28.48,0,10.44,4,10.44,8.88s18,8.87,40.28,8.87S91,13.78,91,8.88,73,0,50.72,0ZM78.4,13.25a138.65,138.65,0,0,1-27.68,2.47,138.62,138.62,0,0,1-27.67-2.47C14.5,11.41,12.53,9.33,12.47,8.87s2-2.53,10.58-4.37A138.55,138.55,0,0,1,50.72,2,138.58,138.58,0,0,1,78.4,4.5C87,6.34,88.92,8.42,89,8.88S87,11.41,78.4,13.25Z"/><text class="cls-13" transform="translate(32.51 57.01) scale(0.99 1)">Exp<tspan class="cls-14" x="15.4" y="0">r</tspan><tspan x="18.6" y="0">esso</tspan></text><text class="cls-15" transform="translate(38.23 32.14) scale(0.99 1)"><tspan class="cls-16">C</tspan><tspan class="cls-17" x="5.98" y="0">r</tspan><tspan x="9.27" y="0">eam</tspan></text><text class="cls-15" transform="translate(25.53 43.44) scale(0.99 1)"><tspan class="cls-18">V</tspan><tspan x="5.44" y="0">anilla Sugar</tspan></text></g></g></g></svg>