<svg xmlns="http://www.w3.org/2000/svg" viewBox="0 0 106.04 72.25"><defs><style>.cls-1{isolation:isolate;}.cls-2{fill:#937f78;}.cls-12,.cls-3,.cls-6{fill:#fafbff;}.cls-4{fill:#d5c1be;}.cls-5,.cls-7{fill:#cebdab;}.cls-12,.cls-6,.cls-7{opacity:0.4;}.cls-7{mix-blend-mode:multiply;}.cls-8{fill:#fff2ce;}.cls-9{fill:#ffb600;}.cls-10{fill:#472b1e;}.cls-11{fill:#fffcf2;}.cls-12{mix-blend-mode:overlay;}.cls-13{font-size:10.11px;fill:#fff;}.cls-13,.cls-15{font-family:MyriadPro-Regular, Myriad Pro;}.cls-14{letter-spacing:-0.01em;}.cls-15{font-size:10.37px;}.cls-16{letter-spacing:0em;}.cls-17{letter-spacing:-0.01em;}</style></defs><title>Recurso 16</title><g class="cls-1"><g id="Capa_2" data-name="Capa 2"><g id="OBJECTS"><path class="cls-2" d="M50.94,69.69C23.2,69.69.68,64.78.24,58.7c2,19.33,103.13,16.76,101.41,0C101.21,64.78,78.68,69.69,50.94,69.69Z"/><path class="cls-3" d="M101.67,58.52c1,11.63-73.13,14.86-94.53,5.63C-31.85,46,101.54,41.16,101.67,58.52Z"/><path class="cls-4" d="M78.6,61.59c.7,3.94-28.42,6.74-46,3.76C-5.36,58.15,76.71,52.32,78.6,61.59Z"/><path class="cls-3" d="M93.11,19.29H91c-.11,2.07-.27,4.11-.48,6.09,14.37-.75,10.93,16.64-2.6,13.72a48.29,48.29,0,0,1-2.24,6.1C110.53,48.83,112.07,21.32,93.11,19.29Z"/><path class="cls-5" d="M93.11,43.67H86.25c-.21.51-.4,1-.62,1.53,9.57,1.32,20.72-2.34,20.4-13.72A13,13,0,0,1,93.11,43.67Z"/><path class="cls-5" d="M99.93,31.48c.59-4-3.87-8.52-9.32-7.63,0,.51-.08,1-.14,1.53C94.1,24.81,99,26.52,99.93,31.48Z"/><path class="cls-6" d="M91.23,8.88h0C89.88-3.46,9.31-1.76,10.66,8.88h0C3.26,86.33,99,83.51,91.23,8.88Z"/><path class="cls-7" d="M16.26,33.45c4.42,42.68,65.59,40.28,69.28,0Z"/><path class="cls-8" d="M87.64,23C87.56,76.5,13.22,74.7,14.22,23,23.1,32.83,85.93,30.48,87.64,23Z"/><path class="cls-9" d="M79.15,36.78c-17,3.2-45.71,4.17-63.25-2,5.36,37.6,65.33,35.41,70,.07C84.21,35.65,83.06,35.82,79.15,36.78Z"/><path class="cls-10" d="M50.93,51.16c-11.15-.23-20.71-.72-30.44-3.94,9.92,20.28,51.78,18.64,60.63.1C73.65,49.88,62.23,51.13,50.93,51.16Z"/><path class="cls-11" d="M50.93,29.4c-32.37.85-56.88-9.64-12.54-13.27C92.28,12.69,109.28,28.65,50.93,29.4Z"/><path class="cls-7" d="M66.64.88c7.18,27-2,66.47-15.7,64,30.31.07,36.34-25,36.14-56C87.14,5.74,79,2.31,66.64.88Z"/><path class="cls-12" d="M32.9,5.51c.1-1,.14-1.86,2.34-4.63C16.6,3.74,13,4.45,15.11,21.05,16.54,46.6,23.6,64.44,50.94,64.87,35.18,64.87,32.9,38.29,32.9,5.51Z"/><path class="cls-3" d="M50.94,0C5.13.46-2.86,13.14,34.5,17,99.18,21.7,113,.78,50.94,0ZM78.62,13.25C62.14,16.43,25.7,18.06,12.69,8.87,24.09-4,119.88,4.33,78.62,13.25Z"/><text class="cls-13" transform="translate(32.94 58.91) scale(0.99 1)">Exp<tspan class="cls-14" x="15.4" y="0">r</tspan><tspan x="18.6" y="0">esso</tspan></text><text class="cls-15" transform="translate(38.65 46.75) scale(0.99 1)">Honey</text><text class="cls-15" transform="translate(39.05 30.28) scale(0.99 1)"><tspan class="cls-16">C</tspan><tspan class="cls-17" x="5.98" y="0">r</tspan><tspan x="9.27" y="0">eam</tspan></text></g></g></g></svg>