<svg xmlns="http://www.w3.org/2000/svg" viewBox="0 0 89.93 70.97"><defs><style>.cls-1{isolation:isolate;}.cls-2{fill:#937f78;}.cls-12,.cls-3,.cls-5{fill:#fafbff;}.cls-4{fill:#d5c1be;}.cls-12,.cls-13,.cls-5,.cls-7{opacity:0.4;}.cls-13,.cls-6,.cls-8{fill:#cebdab;}.cls-6{opacity:0.62;}.cls-13,.cls-6,.cls-7{mix-blend-mode:multiply;}.cls-9{fill:#fff2ce;}.cls-10{fill:#fffcf2;}.cls-11{fill:#472b1e;}.cls-12{mix-blend-mode:overlay;}.cls-14{font-size:10.11px;fill:#fff;}.cls-14,.cls-16{font-family:MyriadPro-Regular, Myriad Pro;}.cls-15{letter-spacing:-0.01em;}.cls-16{font-size:10.37px;}.cls-17{letter-spacing:-0.01em;}.cls-18{letter-spacing:0em;}.cls-19{letter-spacing:-0.01em;}</style></defs><title>Recurso 12</title><g class="cls-1"><g id="Capa_2" data-name="Capa 2"><g id="OBJECTS"><path class="cls-2" d="M43.44,68.56c-23.75,0-43-4.2-43.42-9.41a1.11,1.11,0,0,0,0,.19C0,65.76,19.45,71,43.44,71s43.44-5.21,43.44-11.63c0-.07,0-.13,0-.19C86.49,64.36,67.2,68.56,43.44,68.56Z"/><ellipse class="cls-3" cx="43.44" cy="58.99" rx="43.44" ry="9.57"/><ellipse class="cls-4" cx="43.44" cy="61.63" rx="23.68" ry="4.3"/><path class="cls-5" d="M73.34,8.58C73.34,3.84,60,0,43.44,0S13.55,3.84,13.55,8.58c0,29.91,3.77,54.16,29.89,54.16,25.53,0,29.9-24.25,29.9-54.16Z"/><path class="cls-6" d="M43.34,48c-12.82,0-21.15-2.82-22.7-4.77,3.45,11.63,10.13,19,22.8,19,12.39,0,19.1-7.4,22.64-19C64.58,45.12,56.21,48,43.34,48Z"/><path class="cls-3" d="M77,18H73.16c-.08,2.08-.2,4.12-.35,6.1H77a6.86,6.86,0,0,1,0,13.72H70.84a55.21,55.21,0,0,1-1.74,6.1H77A13,13,0,1,0,77,18Z"/><g class="cls-7"><path class="cls-8" d="M77,42.07H69.69c-.19.63-.38,1.26-.59,1.86H77a13,13,0,0,0,13-13c0-.31,0-.62,0-.93A13,13,0,0,1,77,42.07Z"/><path class="cls-8" d="M83.76,30a7,7,0,0,0,.07-.92A6.87,6.87,0,0,0,77,22.25h-4l-.12,1.86H77A6.86,6.86,0,0,1,83.76,30Z"/></g><path class="cls-9" d="M65.42,20.37a7.88,7.88,0,0,1-1,4.2c.61-1.08,4.36,3.87,4.54,4.62.52,2.18-.57,5.31-1,7.46A42.3,42.3,0,0,1,63.55,49,21.11,21.11,0,0,1,46.73,59.54c-1.09.1-2.19.15-3.28.15-7.82,0-15.06-2.81-19.5-9.47a36.24,36.24,0,0,1-4.7-11.37c-.48-1.93-1.56-4.72-1.5-6.66.08-2.43,2.81-4.64,5-5.22a4.08,4.08,0,0,1-.45-4.79,8.35,8.35,0,0,1,3.91-3.26c3.53-1.67,7.51-2.14,11.15-3.56A22.72,22.72,0,0,0,48.25,6.21c4.13.31,8.53.72,11.75,3.32a14.72,14.72,0,0,1,3.59,4.61A14.62,14.62,0,0,1,65.42,20.37Z"/><path class="cls-10" d="M53.25,16.71c1.7-2.08,3.1-4.85,2.21-7.39a6.06,6.06,0,0,0-1.71-2.45,44.6,44.6,0,0,0-5.5-.66,22.72,22.72,0,0,1-10.93,9.15c-3.64,1.42-7.62,1.89-11.15,3.56a8.35,8.35,0,0,0-3.91,3.26,4.36,4.36,0,0,0-.12,4,45,45,0,0,0,4.95-1.78,31,31,0,0,1,10.16-2c2.93-.07,5.93.27,8.74-.55A15.18,15.18,0,0,0,53.25,16.71Z"/><path class="cls-10" d="M36.9,29.83c-3.51-.52-6.77-1.65-10.43-1.11-3.07.46-4.41,2.65-2.18,5s5.18,2.86,8.15,3.25c7.39,1,18.91,2.37,24.59-3.7,1.1-1.17,2.56-3.77,1.08-5.18s-5.32.5-7,.93A38,38,0,0,1,38.2,30C37.76,29.94,37.33,29.89,36.9,29.83Z"/><path class="cls-11" d="M18.73,36.53c3.06,14.72,10,23.16,24.72,23.16,13.3,0,21-6.8,24.52-23C65,38.8,56.18,41.4,43.42,41.4,30.42,41.4,21.56,38.71,18.73,36.53Z"/><path class="cls-12" d="M34.73,10.08a8.54,8.54,0,0,1,8.71-8.34c-12.64,0-22.89,3.74-22.89,8.34,0,29.08,2.89,52.66,22.89,52.66C35.83,62.74,34.73,39.16,34.73,10.08Z"/><path class="cls-13" d="M45.41,1.15a8.57,8.57,0,0,1,8.71,8.43h0c0,29.36-1.28,53.16-8.71,53.16,19.54,0,22.88-23.8,22.88-53.16h0C68.29,4.92,58.05,1.15,45.41,1.15Z"/><path class="cls-3" d="M43.44,0C26.93,0,13.55,3.84,13.55,8.58s13.38,8.59,29.89,8.59,29.9-3.85,29.9-8.59S60,0,43.44,0Zm0,15.13c-17.28,0-27.86-4.24-27.86-6.55S26.16,2,43.44,2,71.3,6.27,71.3,8.58,60.73,15.13,43.44,15.13Z"/><text class="cls-14" transform="translate(25.96 50.79) scale(0.99 1)">Exp<tspan class="cls-15" x="15.4" y="0">r</tspan><tspan x="18.6" y="0">esso</tspan></text><text class="cls-16" transform="translate(8.01 31.57) scale(0.99 1)"><tspan class="cls-17">W</tspan><tspan x="8.72" y="0">hipped </tspan><tspan class="cls-18" x="41.95" y="0">C</tspan><tspan class="cls-19" x="47.93" y="0">r</tspan><tspan x="51.22" y="0">eam</tspan></text></g></g></g></svg>