<svg xmlns="http://www.w3.org/2000/svg" viewBox="0 0 105.85 72.5"><defs><style>.cls-1{isolation:isolate;}.cls-14,.cls-2,.cls-9{fill:#fafbff;}.cls-3{fill:#937f78;}.cls-4{font-size:12px;}.cls-15,.cls-17,.cls-4{font-family:MyriadPro-Regular, Myriad Pro;}.cls-5{letter-spacing:-0.01em;}.cls-6{letter-spacing:-0.01em;}.cls-7{fill:#d5c1be;}.cls-10,.cls-8{fill:#cebdab;}.cls-10,.cls-14,.cls-9{opacity:0.4;}.cls-10{mix-blend-mode:multiply;}.cls-11{fill:#ffe6b0;}.cls-12{fill:#3a1e08;}.cls-13{fill:#472b1e;}.cls-14{mix-blend-mode:overlay;}.cls-15{font-size:10.11px;fill:#fff;}.cls-16{letter-spacing:-0.01em;}.cls-17{font-size:10.37px;}.cls-18{letter-spacing:0.01em;}.cls-19{letter-spacing:-0.01em;}.cls-20{letter-spacing:-0.01em;}.cls-21{letter-spacing:0em;}</style></defs><title>Recurso 14</title><g class="cls-1"><g id="Capa_2" data-name="Capa 2"><g id="OBJECTS"><ellipse class="cls-2" cx="51.32" cy="57.83" rx="50.72" ry="11.18"/><path class="cls-3" d="M50.72,69.69C23,69.69.46,64.78,0,58.7c0,.07,0,.14,0,.22C0,66.42,22.71,72.5,50.72,72.5s50.73-6.08,50.73-13.58c0-.08,0-.15,0-.22C101,64.78,78.46,69.69,50.72,69.69Z"/><text class="cls-4" transform="translate(31.3 55.86)"><tspan class="cls-5">L</tspan><tspan x="5.5" y="0">o</tspan><tspan class="cls-6" x="12.08" y="0">r</tspan><tspan x="15.89" y="0">em </tspan></text><path class="cls-7" d="M78.38,61.59c0,2.78-12.38,5-27.66,5s-27.65-2.24-27.65-5,12.38-5,27.65-5S78.38,58.82,78.38,61.59Z"/><path class="cls-2" d="M92.9,19.29H90.74c-.12,2.07-.28,4.11-.49,6.09H92.9a6.86,6.86,0,0,1,0,13.72H87.65a46.79,46.79,0,0,1-2.24,6.1H92.9a13,13,0,0,0,0-25.91Z"/><path class="cls-8" d="M92.9,43.67H86c-.2.51-.4,1-.62,1.53H92.9a13,13,0,0,0,12.95-13c0-.25,0-.51,0-.76A13,13,0,0,1,92.9,43.67Z"/><path class="cls-8" d="M99.71,31.48a6.64,6.64,0,0,0,.05-.77,6.87,6.87,0,0,0-6.86-6.86H90.39c0,.51-.08,1-.14,1.53H92.9A6.86,6.86,0,0,1,99.71,31.48Z"/><path class="cls-9" d="M91,8.88h0C91,4,73,0,50.72,0S10.44,4,10.44,8.88h0c0,30.92,5.09,56,40.28,56C85.12,64.87,91,39.8,91,8.88Z"/><path class="cls-10" d="M16,33.45c3.43,19.42,12.68,30.72,34.69,30.72,21.77,0,31.08-11.63,34.59-30.72Z"/><path class="cls-11" d="M85.7,24.56c1.72,1.93,1.17,3.72.77,6.13a56.46,56.46,0,0,1-3.22,11.85C80.49,49.31,75.81,55,69.14,58.23,63.45,61,57,61.82,50.73,61.82c-8.26,0-17-1.43-23.67-6.64-6-4.68-9.25-11.74-11-19C14.77,31.14,12.32,25.1,18.2,22c2.69-1.42,5.85-1.54,8.88-1.63a5.52,5.52,0,0,1,1-5.62A13.34,13.34,0,0,1,33,11.31,23.58,23.58,0,0,1,41,8.9,11.51,11.51,0,0,1,48.91,11c3,2.37,4.2,6.34,5.22,10a16.89,16.89,0,0,1,6-2.8c2.33-.57,5-.56,6.88.93,1.59,1.26,2.29,3.32,2.91,5.26a17.92,17.92,0,0,1,9.18-2.75,9.39,9.39,0,0,1,6.46,2.76Z"/><path class="cls-12" d="M79.37,35.38a147.68,147.68,0,0,1-28.66,2.48,147.68,147.68,0,0,1-28.66-2.48A50.68,50.68,0,0,1,16,33.79a2.62,2.62,0,0,1-.58-.29C19,51.42,28.52,61.82,50.73,61.82c22,0,31.51-10.69,35.2-28.28a3,3,0,0,1-.51.25A51.2,51.2,0,0,1,79.37,35.38Z"/><path class="cls-13" d="M50.71,48.81a148.47,148.47,0,0,1-28.66-2.48c-.95-.2-1.79-.4-2.59-.59C24.72,56.06,34.2,61.82,50.73,61.82c16.25,0,25.71-5.86,31-16-.74.18-1.52.36-2.38.54A148.47,148.47,0,0,1,50.71,48.81Z"/><path class="cls-10" d="M66.42.88a6.36,6.36,0,0,1,2.35,4.63h0c0,32.78-2.64,59.36-18,59.36,30.86,0,36.14-25.07,36.14-56h0C86.86,5.36,78.52,2.31,66.42.88Z"/><path class="cls-14" d="M32.68,5.51h0A6.36,6.36,0,0,1,35,.88c-12.1,1.43-20.44,4.48-20.44,8h0c0,30.92,4.56,56,36.13,56C35,64.87,32.68,38.29,32.68,5.51Z"/><path class="cls-2" d="M50.72,0C28.48,0,10.44,4,10.44,8.88s18,8.87,40.28,8.87S91,13.78,91,8.88,73,0,50.72,0ZM78.4,13.25a138.65,138.65,0,0,1-27.68,2.47,138.62,138.62,0,0,1-27.67-2.47C14.5,11.41,12.53,9.33,12.47,8.87s2-2.53,10.58-4.37A138.55,138.55,0,0,1,50.72,2,138.58,138.58,0,0,1,78.4,4.5C87,6.34,88.92,8.42,89,8.88S87,11.41,78.4,13.25Z"/><text class="cls-15" transform="translate(35.33 57.03) scale(0.99 1)">Exp<tspan class="cls-16" x="15.4" y="0">r</tspan><tspan x="18.6" y="0">esso</tspan></text><text class="cls-17" transform="translate(33.38 31.22) scale(0.99 1)"><tspan class="cls-18">M</tspan><tspan x="8.46" y="0">ilk </tspan><tspan class="cls-19" x="20.4" y="0">f</tspan><tspan x="23.29" y="0">oam</tspan></text><text class="cls-15" transform="translate(30.8 45.26) scale(0.99 1)">Cho<tspan class="cls-20" x="17.02" y="0">c</tspan><tspan x="21.48" y="0">ol</tspan><tspan class="cls-21" x="29.42" y="0">a</tspan><tspan class="cls-20" x="34.25" y="0">t</tspan><tspan x="37.53" y="0">e</tspan></text></g></g></g></svg>