<svg xmlns="http://www.w3.org/2000/svg" viewBox="0 0 89.93 70.97"><defs><style>.cls-1{isolation:isolate;}.cls-2{fill:#937f78;}.cls-12,.cls-3,.cls-5{fill:#fafbff;}.cls-4{fill:#d5c1be;}.cls-12,.cls-13,.cls-5,.cls-7{opacity:0.4;}.cls-13,.cls-6,.cls-8{fill:#cebdab;}.cls-6{opacity:0.62;}.cls-13,.cls-6,.cls-7{mix-blend-mode:multiply;}.cls-9{fill:#fee35b;}.cls-10{fill:#fff878;}.cls-11{fill:#472b1e;}.cls-12{mix-blend-mode:overlay;}.cls-14{font-size:10.11px;fill:#fff;}.cls-14,.cls-16{font-family:MyriadPro-Regular, Myriad Pro;}.cls-15{letter-spacing:-0.01em;}.cls-16{font-size:10.37px;}.cls-17{letter-spacing:-0.01em;}</style></defs><title>Recurso 13</title><g class="cls-1"><g id="Capa_2" data-name="Capa 2"><g id="OBJECTS"><path class="cls-2" d="M43.44,68.56c-23.75,0-43-4.2-43.42-9.41a1.11,1.11,0,0,0,0,.19C0,65.76,19.45,71,43.44,71s43.44-5.21,43.44-11.63c0-.07,0-.13,0-.19C86.49,64.36,67.2,68.56,43.44,68.56Z"/><ellipse class="cls-3" cx="43.44" cy="58.99" rx="43.44" ry="9.57"/><ellipse class="cls-4" cx="43.44" cy="61.63" rx="23.68" ry="4.3"/><path class="cls-5" d="M73.34,8.58C73.34,3.84,60,0,43.44,0S13.55,3.84,13.55,8.58c0,29.91,3.77,54.16,29.89,54.16,25.53,0,29.9-24.25,29.9-54.16Z"/><path class="cls-6" d="M43.34,48c-12.82,0-21.15-2.82-22.7-4.77,3.45,11.63,10.13,19,22.8,19,12.39,0,19.1-7.4,22.64-19C64.58,45.12,56.21,48,43.34,48Z"/><path class="cls-3" d="M77,18H73.16c-.08,2.08-.2,4.12-.35,6.1H77a6.86,6.86,0,0,1,0,13.72H70.84a55.21,55.21,0,0,1-1.74,6.1H77A13,13,0,1,0,77,18Z"/><g class="cls-7"><path class="cls-8" d="M77,42.07H69.69c-.19.63-.38,1.26-.59,1.86H77a13,13,0,0,0,13-13c0-.31,0-.62,0-.93A13,13,0,0,1,77,42.07Z"/><path class="cls-8" d="M83.76,30a7,7,0,0,0,.07-.92A6.87,6.87,0,0,0,77,22.25h-4l-.12,1.86H77A6.86,6.86,0,0,1,83.76,30Z"/></g><path class="cls-9" d="M70,20.16c-1.55,28.24-9.4,39.53-26.54,39.53C24,59.69,18.06,44.88,16.86,20.22,17,22.43,27.08,26.4,43.42,26.4S70,22.35,70,20.16Z"/><path class="cls-10" d="M43.42,26.4c-16.48,0-26.57-4-26.57-6.24s10.09-6.25,26.57-6.25S70,18,70,20.16,59.91,26.4,43.42,26.4Z"/><path class="cls-11" d="M17.79,31C20.22,49.12,27,59.69,43.45,59.69c14.74,0,22.6-8.35,25.51-28.64-3,2.18-12.15,4.85-25.54,4.85C29.86,35.9,20.64,33.16,17.79,31Z"/><path class="cls-12" d="M34.73,10.08a8.54,8.54,0,0,1,8.71-8.34c-12.64,0-22.89,3.74-22.89,8.34,0,29.08,2.89,52.66,22.89,52.66C35.83,62.74,34.73,39.16,34.73,10.08Z"/><path class="cls-13" d="M45.41,1.15a8.57,8.57,0,0,1,8.71,8.43h0c0,29.36-1.28,53.16-8.71,53.16,19.54,0,22.88-23.8,22.88-53.16h0C68.29,4.92,58.05,1.15,45.41,1.15Z"/><path class="cls-3" d="M43.44,0C26.93,0,13.55,3.84,13.55,8.58s13.38,8.59,29.89,8.59,29.9-3.85,29.9-8.59S60,0,43.44,0Zm0,15.13c-17.28,0-27.86-4.24-27.86-6.55S26.16,2,43.44,2,71.3,6.27,71.3,8.58,60.73,15.13,43.44,15.13Z"/><text class="cls-14" transform="translate(26.22 48.43) scale(0.99 1)">Exp<tspan class="cls-15" x="15.4" y="0">r</tspan><tspan x="18.6" y="0">esso</tspan></text><text class="cls-16" transform="translate(30.42 26.39) scale(0.99 1)"><tspan class="cls-17">L</tspan><tspan x="4.75" y="0">emon</tspan></text></g></g></g></svg>